<svg xmlns="http://www.w3.org/2000/svg" viewBox="0 0 500 500"><title>Asset 23</title><g id="Layer_2" data-name="Layer 2"><g id="Layer_1-2" data-name="Layer 1"><rect width="500" height="500" fill="none"/><path d="M131.65,446.83H295.28c44.52-7.24,74.2-27.39,74.2-83.55,0-70.36-46.58-171.3-110.58-206L290.17,51.19C240.79,27,165.05,90.77,108.25,54.63L168,157.31C104,192,57.45,292.92,57.45,363.28,57.45,419.44,87.13,439.59,131.65,446.83Z" fill="#439945"/><path d="M295.28,446.83c44.52-7.24,74.2-27.39,74.2-83.55,0-70.36-46.58-171.3-110.58-206L290.17,51.19c-11.54-5.66-23-6.68-34.42-5.41.63,42.29-5.43,80.54-20.77,113.16,64,33.55,100.09,120.75,100.09,188.85,0,83.38-69.85,84.78-156,84.78-37.88,0-72.59-.28-99.61-7.66,12.94,12,31,18.45,52.48,21.93H295.28Z" fill="#106433"/><path d="M262.92,164.05a413.62,413.62,0,0,0-100,0,7.67,7.67,0,0,1-8.65-7.58h0a7.71,7.71,0,0,1,6.79-7.67,454.16,454.16,0,0,1,103.71,0,7.71,7.71,0,0,1,6.81,7.67h0A7.68,7.68,0,0,1,262.92,164.05Z" fill="#f8991d"/><path d="M372.31,429.19a3.3,3.3,0,0,0-.76.1.87.87,0,0,0-.39-.1H294.67a.91.91,0,0,0-.4.1,3.23,3.23,0,0,0-.76-.1c-2.47,0-4.47,2.86-4.47,6.38s2,6.37,4.47,6.37a3.22,3.22,0,0,0,.76-.09.9.9,0,0,0,.4.09h76.49a.86.86,0,0,0,.39-.09,3.29,3.29,0,0,0,.76.09c2.47,0,4.48-2.85,4.48-6.37S374.78,429.19,372.31,429.19Z" fill="#fabb15"/><path d="M374,429.66a8.52,8.52,0,0,1,.47,2.83c0,3.52-2,6.37-4.47,6.37a3.16,3.16,0,0,1-.76-.09.93.93,0,0,1-.4.09H292.34a.93.93,0,0,1-.4-.09,3.16,3.16,0,0,1-.76.09,3.34,3.34,0,0,1-1.68-.46c.74,2.1,2.25,3.54,4,3.54a3.22,3.22,0,0,0,.76-.09.9.9,0,0,0,.4.09h76.49a.86.86,0,0,0,.39-.09,3.29,3.29,0,0,0,.76.09c2.47,0,4.48-2.85,4.48-6.37C376.79,432.89,375.63,430.61,374,429.66Z" fill="#d97f27"/><path d="M372.31,416.68a3.29,3.29,0,0,0-.76.09.86.86,0,0,0-.39-.09H294.67a.9.9,0,0,0-.4.09,3.22,3.22,0,0,0-.76-.09c-2.47,0-4.47,2.85-4.47,6.37s2,6.37,4.47,6.37a3.22,3.22,0,0,0,.76-.09.9.9,0,0,0,.4.09h76.49a.86.86,0,0,0,.39-.09,3.29,3.29,0,0,0,.76.09c2.47,0,4.48-2.85,4.48-6.37S374.78,416.68,372.31,416.68Z" fill="#fabb15"/><path d="M374,417.14a8.61,8.61,0,0,1,.47,2.83c0,3.52-2,6.38-4.47,6.38a3.17,3.17,0,0,1-.76-.1,1,1,0,0,1-.4.1H292.34a1,1,0,0,1-.4-.1,3.17,3.17,0,0,1-.76.1,3.35,3.35,0,0,1-1.68-.47c.74,2.1,2.25,3.54,4,3.54a3.22,3.22,0,0,0,.76-.09.9.9,0,0,0,.4.09h76.49a.86.86,0,0,0,.39-.09,3.29,3.29,0,0,0,.76.09c2.47,0,4.48-2.85,4.48-6.37C376.79,420.38,375.63,418.09,374,417.14Z" fill="#d97f27"/><path d="M372.31,404.16a3.29,3.29,0,0,0-.76.09.86.86,0,0,0-.39-.09H294.67a.9.9,0,0,0-.4.09,3.22,3.22,0,0,0-.76-.09c-2.47,0-4.47,2.85-4.47,6.37s2,6.38,4.47,6.38a3.23,3.23,0,0,0,.76-.1.91.91,0,0,0,.4.1h76.49a.87.87,0,0,0,.39-.1,3.3,3.3,0,0,0,.76.1c2.47,0,4.48-2.86,4.48-6.38S374.78,404.16,372.31,404.16Z" fill="#fabb15"/><path d="M374,404.63a8.52,8.52,0,0,1,.47,2.83c0,3.52-2,6.37-4.47,6.37a3.16,3.16,0,0,1-.76-.09.93.93,0,0,1-.4.09H292.34a.93.93,0,0,1-.4-.09,3.16,3.16,0,0,1-.76.09,3.26,3.26,0,0,1-1.68-.47c.74,2.1,2.25,3.55,4,3.55a3.23,3.23,0,0,0,.76-.1.91.91,0,0,0,.4.1h76.49a.87.87,0,0,0,.39-.1,3.3,3.3,0,0,0,.76.1c2.47,0,4.48-2.86,4.48-6.38C376.79,407.86,375.63,405.57,374,404.63Z" fill="#d97f27"/><path d="M372.31,391.64a3.3,3.3,0,0,0-.76.1.87.87,0,0,0-.39-.1H294.67a.91.91,0,0,0-.4.1,3.23,3.23,0,0,0-.76-.1c-2.47,0-4.47,2.86-4.47,6.38s2,6.37,4.47,6.37a3.22,3.22,0,0,0,.76-.09.9.9,0,0,0,.4.09h76.49a.86.86,0,0,0,.39-.09,3.29,3.29,0,0,0,.76.09c2.47,0,4.48-2.85,4.48-6.37S374.78,391.64,372.31,391.64Z" fill="#fabb15"/><path d="M374,392.11a8.52,8.52,0,0,1,.47,2.83c0,3.52-2,6.37-4.47,6.37a3.16,3.16,0,0,1-.76-.09.93.93,0,0,1-.4.09H292.34a.93.93,0,0,1-.4-.09,3.16,3.16,0,0,1-.76.09,3.34,3.34,0,0,1-1.68-.46c.74,2.1,2.25,3.54,4,3.54a3.22,3.22,0,0,0,.76-.09.9.9,0,0,0,.4.09h76.49a.86.86,0,0,0,.39-.09,3.29,3.29,0,0,0,.76.09c2.47,0,4.48-2.85,4.48-6.37C376.79,395.34,375.63,393.06,374,392.11Z" fill="#d97f27"/><path d="M372.31,379.13a3.29,3.29,0,0,0-.76.09.86.86,0,0,0-.39-.09H294.67a.9.9,0,0,0-.4.09,3.22,3.22,0,0,0-.76-.09c-2.47,0-4.47,2.85-4.47,6.37s2,6.37,4.47,6.37a3.22,3.22,0,0,0,.76-.09.9.9,0,0,0,.4.09h76.49a.86.86,0,0,0,.39-.09,3.29,3.29,0,0,0,.76.09c2.47,0,4.48-2.85,4.48-6.37S374.78,379.13,372.31,379.13Z" fill="#fabb15"/><path d="M374,379.59a8.61,8.61,0,0,1,.47,2.83c0,3.52-2,6.38-4.47,6.38a3.17,3.17,0,0,1-.76-.1,1,1,0,0,1-.4.1H292.34a1,1,0,0,1-.4-.1,3.17,3.17,0,0,1-.76.1,3.35,3.35,0,0,1-1.68-.47c.74,2.1,2.25,3.54,4,3.54a3.22,3.22,0,0,0,.76-.09.9.9,0,0,0,.4.09h76.49a.86.86,0,0,0,.39-.09,3.29,3.29,0,0,0,.76.09c2.47,0,4.48-2.85,4.48-6.37C376.79,382.83,375.63,380.54,374,379.59Z" fill="#d97f27"/><path d="M372.31,366.61a3.29,3.29,0,0,0-.76.09.86.86,0,0,0-.39-.09H294.67a.9.9,0,0,0-.4.09,3.22,3.22,0,0,0-.76-.09c-2.47,0-4.47,2.85-4.47,6.37s2,6.38,4.47,6.38a3.23,3.23,0,0,0,.76-.1.91.91,0,0,0,.4.1h76.49a.87.87,0,0,0,.39-.1,3.3,3.3,0,0,0,.76.1c2.47,0,4.48-2.86,4.48-6.38S374.78,366.61,372.31,366.61Z" fill="#fabb15"/><path d="M374,367.08a8.52,8.52,0,0,1,.47,2.83c0,3.52-2,6.37-4.47,6.37a3.16,3.16,0,0,1-.76-.09.93.93,0,0,1-.4.09H292.34a.93.93,0,0,1-.4-.09,3.16,3.16,0,0,1-.76.09,3.35,3.35,0,0,1-1.68-.47c.74,2.1,2.25,3.55,4,3.55a3.23,3.23,0,0,0,.76-.1.91.91,0,0,0,.4.1h76.49a.87.87,0,0,0,.39-.1,3.3,3.3,0,0,0,.76.1c2.47,0,4.48-2.86,4.48-6.38C376.79,370.31,375.63,368,374,367.08Z" fill="#d97f27"/><path d="M372.31,354.09a3.3,3.3,0,0,0-.76.1.87.87,0,0,0-.39-.1H294.67a.91.91,0,0,0-.4.1,3.23,3.23,0,0,0-.76-.1c-2.47,0-4.47,2.86-4.47,6.38s2,6.37,4.47,6.37a3.22,3.22,0,0,0,.76-.09.9.9,0,0,0,.4.09h76.49a.86.86,0,0,0,.39-.09,3.29,3.29,0,0,0,.76.09c2.47,0,4.48-2.85,4.48-6.37S374.78,354.09,372.31,354.09Z" fill="#fabb15"/><path d="M374,354.56a8.52,8.52,0,0,1,.47,2.83c0,3.52-2,6.37-4.47,6.37a3.16,3.16,0,0,1-.76-.09.93.93,0,0,1-.4.09H292.34a.93.93,0,0,1-.4-.09,3.16,3.16,0,0,1-.76.09,3.34,3.34,0,0,1-1.68-.46c.74,2.1,2.25,3.54,4,3.54a3.22,3.22,0,0,0,.76-.09.9.9,0,0,0,.4.09h76.49a.86.86,0,0,0,.39-.09,3.29,3.29,0,0,0,.76.09c2.47,0,4.48-2.85,4.48-6.37C376.79,357.79,375.63,355.5,374,354.56Z" fill="#d97f27"/><path d="M372.31,341.58a3.29,3.29,0,0,0-.76.09.86.86,0,0,0-.39-.09H294.67a.9.9,0,0,0-.4.09,3.22,3.22,0,0,0-.76-.09c-2.47,0-4.47,2.85-4.47,6.37s2,6.37,4.47,6.37a3.22,3.22,0,0,0,.76-.09.9.9,0,0,0,.4.09h76.49a.86.86,0,0,0,.39-.09,3.29,3.29,0,0,0,.76.09c2.47,0,4.48-2.85,4.48-6.37S374.78,341.58,372.31,341.58Z" fill="#fabb15"/><path d="M374,342a8.57,8.57,0,0,1,.47,2.83c0,3.52-2,6.38-4.47,6.38a3.17,3.17,0,0,1-.76-.1,1,1,0,0,1-.4.1H292.34a1,1,0,0,1-.4-.1,3.17,3.17,0,0,1-.76.1,3.35,3.35,0,0,1-1.68-.47c.74,2.1,2.25,3.54,4,3.54a3.22,3.22,0,0,0,.76-.09.9.9,0,0,0,.4.09h76.49a.86.86,0,0,0,.39-.09,3.29,3.29,0,0,0,.76.09c2.47,0,4.48-2.85,4.48-6.37C376.79,345.28,375.63,343,374,342Z" fill="#d97f27"/><path d="M372.31,329.06a3.29,3.29,0,0,0-.76.09.86.86,0,0,0-.39-.09H294.67a.9.9,0,0,0-.4.09,3.22,3.22,0,0,0-.76-.09c-2.47,0-4.47,2.85-4.47,6.37s2,6.38,4.47,6.38a3.23,3.23,0,0,0,.76-.1.91.91,0,0,0,.4.1h76.49a.87.87,0,0,0,.39-.1,3.3,3.3,0,0,0,.76.1c2.47,0,4.48-2.86,4.48-6.38S374.78,329.06,372.31,329.06Z" fill="#fabb15"/><path d="M374,329.52a8.63,8.63,0,0,1,.47,2.84c0,3.52-2,6.37-4.47,6.37a3.16,3.16,0,0,1-.76-.09,1.11,1.11,0,0,1-.4.09H292.34a1.11,1.11,0,0,1-.4-.09,3.16,3.16,0,0,1-.76.09,3.35,3.35,0,0,1-1.68-.47c.74,2.1,2.25,3.55,4,3.55a3.23,3.23,0,0,0,.76-.1.91.91,0,0,0,.4.1h76.49a.87.87,0,0,0,.39-.1,3.3,3.3,0,0,0,.76.1c2.47,0,4.48-2.86,4.48-6.38C376.79,332.76,375.63,330.47,374,329.52Z" fill="#d97f27"/><path d="M372.31,316.54a3.3,3.3,0,0,0-.76.1.87.87,0,0,0-.39-.1H294.67a.91.91,0,0,0-.4.1,3.23,3.23,0,0,0-.76-.1c-2.47,0-4.47,2.86-4.47,6.38s2,6.37,4.47,6.37a3.85,3.85,0,0,0,.76-.09,1.06,1.06,0,0,0,.4.09h76.49a1,1,0,0,0,.39-.09,3.94,3.94,0,0,0,.76.09c2.47,0,4.48-2.85,4.48-6.37S374.78,316.54,372.31,316.54Z" fill="#fabb15"/><path d="M374,317a8.52,8.52,0,0,1,.47,2.83c0,3.52-2,6.37-4.47,6.37a3.16,3.16,0,0,1-.76-.09.93.93,0,0,1-.4.09H292.34a.93.93,0,0,1-.4-.09,3.16,3.16,0,0,1-.76.09,3.34,3.34,0,0,1-1.68-.46c.74,2.1,2.25,3.54,4,3.54a3.85,3.85,0,0,0,.76-.09,1.06,1.06,0,0,0,.4.09h76.49a1,1,0,0,0,.39-.09,3.94,3.94,0,0,0,.76.09c2.47,0,4.48-2.85,4.48-6.37C376.79,320.24,375.63,318,374,317Z" fill="#d97f27"/><path d="M460.06,429.19a3.23,3.23,0,0,0-.76.1.9.9,0,0,0-.39-.1h-76.5a.9.9,0,0,0-.39.1,3.23,3.23,0,0,0-.76-.1c-2.47,0-4.47,2.86-4.47,6.38s2,6.37,4.47,6.37a3.22,3.22,0,0,0,.76-.09.89.89,0,0,0,.39.09h76.5a.89.89,0,0,0,.39-.09,3.22,3.22,0,0,0,.76.09c2.47,0,4.47-2.85,4.47-6.37S462.53,429.19,460.06,429.19Z" fill="#fabb15"/><path d="M461.74,429.66a8.52,8.52,0,0,1,.47,2.83c0,3.52-2,6.37-4.47,6.37a3.31,3.31,0,0,1-.77-.09.86.86,0,0,1-.39.09H380.09a.9.9,0,0,1-.4-.09,3.22,3.22,0,0,1-.76.09,3.34,3.34,0,0,1-1.68-.46c.73,2.1,2.25,3.54,4,3.54a3.22,3.22,0,0,0,.76-.09.89.89,0,0,0,.39.09h76.5a.89.89,0,0,0,.39-.09,3.22,3.22,0,0,0,.76.09c2.47,0,4.47-2.85,4.47-6.37C464.53,432.89,463.38,430.61,461.74,429.66Z" fill="#d97f27"/><path d="M460.06,416.68a3.22,3.22,0,0,0-.76.09.89.89,0,0,0-.39-.09h-76.5a.89.89,0,0,0-.39.09,3.22,3.22,0,0,0-.76-.09c-2.47,0-4.47,2.85-4.47,6.37s2,6.37,4.47,6.37a3.22,3.22,0,0,0,.76-.09.89.89,0,0,0,.39.09h76.5a.89.89,0,0,0,.39-.09,3.22,3.22,0,0,0,.76.09c2.47,0,4.47-2.85,4.47-6.37S462.53,416.68,460.06,416.68Z" fill="#fabb15"/><path d="M461.74,417.14a8.61,8.61,0,0,1,.47,2.83c0,3.52-2,6.38-4.47,6.38a3.32,3.32,0,0,1-.77-.1.87.87,0,0,1-.39.1H380.09a.91.91,0,0,1-.4-.1,3.23,3.23,0,0,1-.76.1,3.35,3.35,0,0,1-1.68-.47c.73,2.1,2.25,3.54,4,3.54a3.22,3.22,0,0,0,.76-.09.89.89,0,0,0,.39.09h76.5a.89.89,0,0,0,.39-.09,3.22,3.22,0,0,0,.76.09c2.47,0,4.47-2.85,4.47-6.37C464.53,420.38,463.38,418.09,461.74,417.14Z" fill="#d97f27"/><path d="M460.06,404.16a3.22,3.22,0,0,0-.76.09.89.89,0,0,0-.39-.09h-76.5a.89.89,0,0,0-.39.09,3.22,3.22,0,0,0-.76-.09c-2.47,0-4.47,2.85-4.47,6.37s2,6.38,4.47,6.38a3.23,3.23,0,0,0,.76-.1.9.9,0,0,0,.39.1h76.5a.9.9,0,0,0,.39-.1,3.23,3.23,0,0,0,.76.1c2.47,0,4.47-2.86,4.47-6.38S462.53,404.16,460.06,404.16Z" fill="#fabb15"/><path d="M461.74,404.63a8.52,8.52,0,0,1,.47,2.83c0,3.52-2,6.37-4.47,6.37a3.31,3.31,0,0,1-.77-.09.86.86,0,0,1-.39.09H380.09a.9.9,0,0,1-.4-.09,3.24,3.24,0,0,1-2.44-.38c.73,2.1,2.25,3.55,4,3.55a3.23,3.23,0,0,0,.76-.1.9.9,0,0,0,.39.1h76.5a.9.9,0,0,0,.39-.1,3.23,3.23,0,0,0,.76.1c2.47,0,4.47-2.86,4.47-6.38C464.53,407.86,463.38,405.57,461.74,404.63Z" fill="#d97f27"/><path d="M460.06,391.64a3.23,3.23,0,0,0-.76.1.9.9,0,0,0-.39-.1h-76.5a.9.9,0,0,0-.39.1,3.23,3.23,0,0,0-.76-.1c-2.47,0-4.47,2.86-4.47,6.38s2,6.37,4.47,6.37a3.22,3.22,0,0,0,.76-.09.89.89,0,0,0,.39.09h76.5a.89.89,0,0,0,.39-.09,3.22,3.22,0,0,0,.76.09c2.47,0,4.47-2.85,4.47-6.37S462.53,391.64,460.06,391.64Z" fill="#fabb15"/><path d="M461.74,392.11a8.52,8.52,0,0,1,.47,2.83c0,3.52-2,6.37-4.47,6.37a3.31,3.31,0,0,1-.77-.09.86.86,0,0,1-.39.09H380.09a.9.9,0,0,1-.4-.09,3.22,3.22,0,0,1-.76.09,3.34,3.34,0,0,1-1.68-.46c.73,2.1,2.25,3.54,4,3.54a3.22,3.22,0,0,0,.76-.09.89.89,0,0,0,.39.09h76.5a.89.89,0,0,0,.39-.09,3.22,3.22,0,0,0,.76.09c2.47,0,4.47-2.85,4.47-6.37C464.53,395.34,463.38,393.06,461.74,392.11Z" fill="#d97f27"/><path d="M460.06,379.13a3.22,3.22,0,0,0-.76.09.89.89,0,0,0-.39-.09h-76.5a.89.89,0,0,0-.39.09,3.22,3.22,0,0,0-.76-.09c-2.47,0-4.47,2.85-4.47,6.37s2,6.37,4.47,6.37a3.22,3.22,0,0,0,.76-.09.89.89,0,0,0,.39.09h76.5a.89.89,0,0,0,.39-.09,3.22,3.22,0,0,0,.76.09c2.47,0,4.47-2.85,4.47-6.37S462.53,379.13,460.06,379.13Z" fill="#fabb15"/><path d="M461.74,379.59a8.61,8.61,0,0,1,.47,2.83c0,3.52-2,6.38-4.47,6.38a3.32,3.32,0,0,1-.77-.1.87.87,0,0,1-.39.1H380.09a.91.91,0,0,1-.4-.1,3.23,3.23,0,0,1-.76.1,3.35,3.35,0,0,1-1.68-.47c.73,2.1,2.25,3.54,4,3.54a3.22,3.22,0,0,0,.76-.09.89.89,0,0,0,.39.09h76.5a.89.89,0,0,0,.39-.09,3.22,3.22,0,0,0,.76.09c2.47,0,4.47-2.85,4.47-6.37C464.53,382.83,463.38,380.54,461.74,379.59Z" fill="#d97f27"/><path d="M460.06,366.61a3.22,3.22,0,0,0-.76.09.89.89,0,0,0-.39-.09h-76.5a.89.89,0,0,0-.39.09,3.22,3.22,0,0,0-.76-.09c-2.47,0-4.47,2.85-4.47,6.37s2,6.38,4.47,6.38a3.23,3.23,0,0,0,.76-.1.9.9,0,0,0,.39.1h76.5a.9.9,0,0,0,.39-.1,3.23,3.23,0,0,0,.76.1c2.47,0,4.47-2.86,4.47-6.38S462.53,366.61,460.06,366.61Z" fill="#fabb15"/><path d="M461.74,367.08a8.52,8.52,0,0,1,.47,2.83c0,3.52-2,6.37-4.47,6.37a3.31,3.31,0,0,1-.77-.09.86.86,0,0,1-.39.09H380.09a.9.9,0,0,1-.4-.09,3.22,3.22,0,0,1-.76.09,3.35,3.35,0,0,1-1.68-.47c.73,2.1,2.25,3.55,4,3.55a3.23,3.23,0,0,0,.76-.1.9.9,0,0,0,.39.1h76.5a.9.9,0,0,0,.39-.1,3.23,3.23,0,0,0,.76.1c2.47,0,4.47-2.86,4.47-6.38C464.53,370.31,463.38,368,461.74,367.08Z" fill="#d97f27"/><path d="M198.61,211.59a47.07,47.07,0,1,1-43.78,50.16A47.07,47.07,0,0,1,198.61,211.59Z" fill="#d97f27"/><path d="M198.83,214.88a43.78,43.78,0,1,1-40.71,46.65A43.78,43.78,0,0,1,198.83,214.88Z" fill="#fabb15"/><path d="M199.23,220.79A37.86,37.86,0,1,1,164,261.13,37.86,37.86,0,0,1,199.23,220.79Z" fill="#f8991d"/><path d="M190.5,222.46a47.71,47.71,0,0,0,5,73.4,37.82,37.82,0,0,1-5-73.4Z" fill="#d97f27"/><path d="M219.56,261.12c-2.54-4.5-8.2-6.28-12.83-7.33-5.58-1.26-6.85-2.58-7.14-3.09a2.1,2.1,0,0,1,.07-1.55c.69-1.87,3-3.31,5.58-3.49a7.25,7.25,0,0,1,4.88,1.38,2.9,2.9,0,0,0,3.16.24l2.65-1.41a3,3,0,0,0,.74-4.72,15.09,15.09,0,0,0-8.26-4l-.22-3.22a3,3,0,0,0-3.17-2.77l-2.8.19a3,3,0,0,0-2.77,3.17l.24,3.57a14.21,14.21,0,0,0-8.29,8.2A10.49,10.49,0,0,0,192,255c2.54,4.5,8.19,6.28,12.84,7.33,5.57,1.25,6.84,2.58,7.13,3.09a2.09,2.09,0,0,1-.06,1.55c-.7,1.88-3,3.31-5.59,3.49a7.18,7.18,0,0,1-4.87-1.38,2.87,2.87,0,0,0-3.15-.24l-2.65,1.41a3,3,0,0,0-.72,4.75,14.86,14.86,0,0,0,7.58,3.91l.23,3.36a3,3,0,0,0,3.17,2.77l2.8-.19a3,3,0,0,0,2.77-3.17l-.23-3.36a14.29,14.29,0,0,0,8.92-8.45A10.53,10.53,0,0,0,219.56,261.12Z" fill="#d97f27"/><path d="M215.58,261.39c-2.54-4.5-8.19-6.28-12.83-7.33-5.57-1.25-6.84-2.58-7.13-3.09a2.09,2.09,0,0,1,.06-1.55c.69-1.87,3-3.31,5.58-3.49a7.25,7.25,0,0,1,4.88,1.38,2.88,2.88,0,0,0,3.16.24l2.65-1.41a3,3,0,0,0,.75-4.72,15.13,15.13,0,0,0-8.26-4l-.22-3.22a3,3,0,0,0-3.17-2.77l-2.81.19a3,3,0,0,0-2.76,3.17l.24,3.57a14.22,14.22,0,0,0-8.3,8.2,10.45,10.45,0,0,0,.58,8.75c2.54,4.5,8.19,6.29,12.83,7.33,5.58,1.25,6.85,2.58,7.14,3.09a2.1,2.1,0,0,1-.07,1.55c-.69,1.88-3,3.31-5.58,3.49a7.19,7.19,0,0,1-4.88-1.38,2.87,2.87,0,0,0-3.15-.24l-2.65,1.41a3,3,0,0,0-.72,4.75,14.9,14.9,0,0,0,7.58,3.91l.23,3.36a3,3,0,0,0,3.17,2.77l2.8-.19a3,3,0,0,0,2.77-3.17l-.23-3.36a14.28,14.28,0,0,0,8.93-8.45A10.56,10.56,0,0,0,215.58,261.39Z" fill="#fabb15"/><path d="M293.21,169c-8.38,0-19.5-2.77-35-8.71-1.11-.43-3.66-1.94-3.28-6.76.7-8.85,11.35-27.31,29.2-31.07a34.39,34.39,0,0,1,7.05-.74c10.82,0,20.77,5.31,25.36,13.53a18.94,18.94,0,0,1-.51,19.66C311.63,162.05,306.26,169,293.21,169Zm-32-14.32c14.2,5.39,24.69,8,32,8,9,0,12.91-3.74,17.43-11.09a12.49,12.49,0,0,0,.39-13.29c-3.45-6.16-11.43-10.3-19.87-10.3a28.08,28.08,0,0,0-5.75.6c-12.17,2.56-19.16,13.44-21,16.71C261.7,150.1,261.12,153.45,261.17,154.69Z" fill="#f8991d"/></g></g></svg>